HIERARCHY
ROOT Pelvis
{
	OFFSET 0.000000 0.000000 0.000000
	CHANNELS 6 Xposition Yposition Zposition Zrotation Yrotation Xrotation 
	JOINT Left_hip
	{
		OFFSET 0.076090 -0.089427 -0.010735
		CHANNELS 3 Zrotation Yrotation Xrotation
		JOINT Left_knee
		{
			OFFSET 0.030200 -0.359518 -0.003501
			CHANNELS 3 Zrotation Yrotation Xrotation
			JOINT Left_ankle
			{
				OFFSET -0.011005 -0.371022 -0.045888
				CHANNELS 3 Zrotation Yrotation Xrotation
				JOINT Left_foot
				{
					OFFSET 0.023930 -0.052103 0.111084
					CHANNELS 3 Zrotation Yrotation Xrotation
					End Site
					{
						OFFSET 0.000000 0.000000 0.000000
					}
				}
			}
		}
	}
	JOINT Right_hip
	{
		OFFSET -0.073836 -0.088112 -0.007709
		CHANNELS 3 Zrotation Yrotation Xrotation
		JOINT Right_knee
		{
			OFFSET -0.035715 -0.367809 -0.006536
			CHANNELS 3 Zrotation Yrotation Xrotation
			JOINT Right_ankle
			{
				OFFSET 0.013718 -0.371958 -0.043815
				CHANNELS 3 Zrotation Yrotation Xrotation
				JOINT Right_foot
				{
					OFFSET -0.021936 -0.046387 0.114542
					CHANNELS 3 Zrotation Yrotation Xrotation
					End Site
					{
						OFFSET 0.000000 0.000000 0.000000
					}
				}
			}
		}
	}
	JOINT Spine1
	{
		OFFSET -0.001865 0.102064 -0.019455
		CHANNELS 3 Zrotation Yrotation Xrotation
		JOINT Spine2
		{
			OFFSET 0.003082 0.129260 -0.001938
			CHANNELS 3 Zrotation Yrotation Xrotation
			JOINT Spine3
			{
				OFFSET 0.001104 0.048093 0.026561
				CHANNELS 3 Zrotation Yrotation Xrotation
				JOINT Neck
				{
					OFFSET -0.002010 0.204222 -0.047183
					CHANNELS 3 Zrotation Yrotation Xrotation
					JOINT Head
					{
						OFFSET 0.005050 0.063649 0.048489
						CHANNELS 3 Zrotation Yrotation Xrotation
						End Site
						{
							OFFSET 0.000000 0.000000 0.000000
						}
					}
				}
				JOINT Left_collar
				{
					OFFSET 0.072979 0.114065 -0.031633
					CHANNELS 3 Zrotation Yrotation Xrotation
					JOINT Left_shoulder
					{
						OFFSET 0.083419 0.032092 -0.006530
						CHANNELS 3 Zrotation Yrotation Xrotation
						JOINT Left_elbow
						{
							OFFSET 0.239393 -0.012014 -0.025060
							CHANNELS 3 Zrotation Yrotation Xrotation
							JOINT Left_wrist
							{
								OFFSET 0.227297 0.008116 0.000384
								CHANNELS 3 Zrotation Yrotation Xrotation
								JOINT Left_palm
								{
									OFFSET 0.074607 -0.009248 -0.012277
									CHANNELS 3 Zrotation Yrotation Xrotation
									End Site
									{
										OFFSET 0.000000 0.000000 0.000000
									}
								}
							}
						}
					}
				}
				JOINT Right_collar
				{
					OFFSET -0.074980 0.111880 -0.037894
					CHANNELS 3 Zrotation Yrotation Xrotation
					JOINT Right_shoulder
					{
						OFFSET -0.087565 0.034353 -0.009323
						CHANNELS 3 Zrotation Yrotation Xrotation
						JOINT Right_elbow
						{
							OFFSET -0.236838 -0.013719 -0.019794
							CHANNELS 3 Zrotation Yrotation Xrotation
							JOINT Right_wrist
							{
								OFFSET -0.235053 0.006433 -0.003853
								CHANNELS 3 Zrotation Yrotation Xrotation
								JOINT Right_palm
								{
									OFFSET -0.075499 -0.006894 -0.009792
									CHANNELS 3 Zrotation Yrotation Xrotation
									End Site
									{
										OFFSET 0.000000 0.000000 0.000000
									}
								}
							}
						}
					}
				}
			}
		}
	}
}
MOTION
Frames: 12
Frame Time: 0.100000
0.045596 -0.019260 0.036161 170.178921 51.103272 -3.683638 0.288269 1.001594 -11.455196 -0.982400 -6.814085 -6.253633 -17.643010 12.453881 1.067046 23.217804 5.422510 -3.333456 1.085088 -1.502713 -11.395897 1.878800 6.421990 -7.571183 25.000172 -18.356048 -4.338459 -37.510102 15.382501 -3.657350 6.541055 -1.226079 15.741588 -3.688850 -4.097912 -1.834438 2.384864 2.390062 2.084412 -9.775348 -0.957849 -30.041287 3.248537 -0.324093 -24.560484 22.628359 -26.681963 -21.062606 2.266419 -17.691672 -10.476550 54.715208 -57.838674 -54.090677 3.803099 -17.697346 -0.060151 -4.733966 2.958146 -10.890178 -33.506483 24.702826 -23.511071 -9.551252 14.275865 -20.496726 -68.098796 60.134032 -76.747148 -1.012863 12.608814 -26.373762 3.097393 -0.664695 -3.775320 
0.024624 -0.022474 0.047653 170.356601 50.050727 -6.197218 0.213124 1.201609 -7.869029 -1.503631 -5.297339 -4.374397 -12.885697 9.374428 0.576430 16.216443 9.323604 -4.453600 0.562435 -1.716649 -6.891577 2.531589 4.414535 -7.539946 19.243004 -13.046507 -2.503819 -27.309688 10.825949 -1.225726 6.780027 -0.852732 13.943796 -2.443733 -3.468652 -1.572002 2.947392 1.272684 1.013067 -2.715030 -6.039742 -26.412488 5.532808 -2.973886 -21.824073 8.035355 -20.435513 -14.866590 -12.737399 -20.190231 -10.242186 77.840176 -47.986964 -72.639898 15.423299 -12.171678 -3.950045 -6.059581 1.129336 -7.920805 -20.561713 21.472997 -18.663194 4.035027 18.797149 -14.994557 -81.462923 55.414070 -83.712001 -10.998344 7.411714 -25.565990 5.282557 1.260405 -1.664726 
0.004259 -0.021779 0.056490 170.043911 47.854016 -7.758089 0.420275 2.219878 -5.363737 -1.682254 -3.154542 -3.007999 -8.652433 5.863239 -0.590567 10.178563 13.874662 -5.558147 0.407345 -0.939650 -3.787295 3.272957 1.838673 -7.704353 13.024352 -6.061650 -1.206077 -15.151636 3.207015 1.590869 7.111988 -1.193433 12.552204 -0.719190 -2.682658 -1.742706 3.497256 0.258455 -0.902471 3.288296 -6.067224 -23.713428 3.351768 -3.990622 -18.058736 -5.997396 -12.258276 -10.133510 -26.763666 -19.583586 -7.037779 98.050601 -43.535909 -78.591080 19.213662 -13.728340 8.575289 -7.423531 0.138864 -10.605211 -6.987570 17.449218 -15.272495 17.715175 25.534756 -8.899694 -97.341190 51.649860 -89.400061 -16.943864 6.565883 -20.412059 6.896842 2.259280 0.154211 
-0.011433 -0.020329 0.059467 169.899251 44.934089 -7.607234 0.491341 3.072074 -3.734728 -1.755540 -0.994123 -3.990380 -7.180085 5.354550 -1.377673 9.886964 13.897630 -6.417025 0.468564 0.208854 -3.141184 3.389377 0.341542 -7.745732 10.189617 -0.306417 -0.106417 -9.750909 -5.153796 1.041520 7.707416 -1.916218 11.657401 1.153547 -2.283161 -2.267445 4.525586 -0.298587 -1.261653 7.490013 -10.375264 -21.667088 4.300628 -6.182301 -16.634403 -12.004142 -2.536758 -6.222479 -45.400606 -13.127490 -1.752330 111.654391 -42.261042 -81.819062 25.147993 -14.213208 9.252015 -9.590834 -0.525785 -13.108821 -1.598325 12.879932 -12.711723 34.110514 29.530464 -1.280686 -113.297409 49.423949 -94.707019 -22.412339 6.587003 -15.694501 7.720630 2.974877 0.007014 
-0.020790 -0.018646 0.053783 170.051013 43.217320 -6.650755 0.184303 3.228547 -3.509878 -2.220236 0.428890 -5.269893 -6.433997 5.306814 -1.232551 10.347056 12.985757 -7.196042 0.130083 0.916136 -4.393451 3.106758 -0.423923 -6.940759 9.211009 2.631670 0.459179 -8.043106 -9.603078 -0.004158 8.560875 -2.350001 11.805192 2.307373 -1.954322 -2.368185 5.453938 -0.429955 -0.750539 9.450670 -14.669680 -20.214699 6.223207 -7.049575 -16.526723 -13.825004 2.364542 -4.389596 -59.724814 -10.017231 1.893018 119.317671 -41.945871 -86.030894 31.672863 -10.958367 1.520094 -11.733178 -1.364764 -12.426789 -0.807733 10.276630 -11.342212 44.411962 30.685223 3.257468 -125.397527 45.992028 -101.085461 -26.455206 6.306637 -14.471247 8.553516 3.910090 -0.503590 
-0.022360 -0.016395 0.040958 170.481815 42.795585 -5.662329 -0.448266 3.034024 -4.213910 -2.745704 1.181535 -6.319039 -5.316726 4.444864 -0.152499 8.639790 13.845343 -7.846736 -0.559841 0.912969 -5.964360 2.886621 -1.275413 -6.598509 8.368270 4.208290 1.157465 -5.756404 -11.166332 -0.353174 9.288497 -2.511688 13.164592 2.537182 -2.032069 -1.192936 5.827644 -0.426077 -0.168763 7.211274 -12.272090 -16.606669 5.013590 -2.702756 -17.907013 -13.893953 1.501529 -4.813431 -64.478314 -13.207548 4.206169 126.603345 -39.715040 -92.055527 36.475512 -8.162897 -2.799406 -12.360540 -1.996780 -9.886120 -0.920841 9.338257 -10.865728 47.765735 31.384871 4.783045 -132.911418 42.198418 -105.979441 -29.691889 5.739572 -13.438799 9.767386 5.073875 -0.719222 
-0.019987 -0.013919 0.031414 170.645530 43.762458 -4.753524 -0.781434 3.139652 -5.004241 -3.224088 0.910516 -7.781752 -5.609730 3.527829 1.015682 8.210879 14.326428 -8.201054 -1.198629 0.414608 -6.913862 3.023335 -1.940314 -7.545331 8.941147 3.933212 1.648789 -6.161371 -10.249850 -0.015935 9.230098 -2.618063 14.043981 2.093040 -2.483344 -0.824003 5.407618 -0.564925 0.017539 3.330598 -6.127183 -14.263136 1.731107 1.705887 -16.156047 -12.982270 -0.935780 -5.425637 -61.552289 -16.667892 3.919483 126.765197 -39.698243 -91.877143 36.541120 -10.417983 0.348252 -12.333825 -1.909496 -9.859104 -0.129877 8.780827 -9.941126 47.370388 29.105941 4.718292 -133.571965 41.751834 -106.953288 -29.512130 6.279076 -15.098819 10.413262 5.004079 -0.889949 
-0.022207 -0.015500 0.034702 169.710846 47.416501 -6.668841 -0.693202 2.524643 -3.954852 -2.814534 -0.820679 -7.310114 -6.536383 2.774854 1.289779 8.721369 13.971381 -9.156294 -1.109705 -0.614044 -5.256781 2.935315 -2.221330 -6.861451 10.698497 0.912937 0.046796 -10.760318 -5.624831 0.114368 8.528841 -2.275088 12.485819 1.024963 -2.912142 -1.478071 4.320559 -0.894718 0.162444 -2.304799 1.622902 -16.391862 -3.065387 5.917339 -12.301207 -12.303021 -4.412888 -5.902009 -57.263506 -20.639920 3.325793 121.725188 -41.679425 -89.132522 35.443884 -11.509450 1.305176 -12.557139 -1.987148 -8.778695 2.330462 8.179414 -8.585141 45.843141 23.640466 4.164086 -127.410384 43.410900 -104.346500 -28.437981 6.447685 -18.818007 11.781553 4.668902 -1.077847 
-0.027460 -0.018003 0.047585 168.115798 51.020736 -9.465103 0.060343 1.837457 -2.217008 -2.429171 -2.368581 -6.409734 -6.449632 1.717339 0.940135 8.116870 13.631830 -10.321634 -0.246148 -2.000017 -2.765613 2.794695 -2.347445 -6.063344 12.521946 -1.795152 -2.120263 -15.506366 -0.972044 -0.531522 6.596059 -1.081042 9.485333 -0.600066 -2.855173 -2.738545 2.807891 -0.881160 0.240323 -8.404805 9.599859 -19.197036 -7.262934 10.507564 -7.806143 -11.520377 -7.406871 -6.797482 -54.113745 -25.722863 2.638629 119.267554 -43.292953 -87.452414 35.040913 -11.632864 1.447704 -13.459568 -2.582497 -6.564187 5.140589 6.825459 -7.113985 46.620955 17.859860 4.279012 -124.515735 43.447874 -102.027811 -27.861529 7.175307 -19.690203 14.330414 5.082000 -1.464162 
-0.030118 -0.018668 0.058022 166.508060 52.282906 -11.685249 1.448208 1.848506 -0.330771 -2.565139 -3.156007 -7.128835 -5.726813 0.669140 0.664616 6.713760 14.021273 -10.918424 0.977079 -2.307365 -1.452047 2.672448 -2.845646 -5.373709 12.436552 -1.794105 -3.186460 -15.820040 -0.924870 -0.767843 4.385205 -0.108852 7.881811 -2.489104 -2.226941 -2.886224 1.280989 -0.593573 -0.313372 -11.792974 12.259029 -19.303064 -8.953323 11.398560 -6.661805 -11.602494 -7.885654 -7.117411 -53.253628 -28.138757 2.536500 124.013501 -43.696251 -88.823666 35.189475 -13.437202 5.456857 -14.146371 -2.818740 -6.749616 6.619761 5.686137 -5.997693 50.615711 14.058984 5.180733 -127.058176 42.117529 -102.074439 -27.785367 8.053481 -19.465201 16.034182 5.464905 -1.979110 
-0.029914 -0.018334 0.060338 165.639347 52.480074 -13.096655 2.229058 2.038380 0.579166 -2.771060 -3.396907 -7.226805 -4.954433 0.135971 0.346151 5.533689 14.165975 -11.034112 1.670239 -2.377600 -0.751893 2.584367 -3.414581 -5.010974 11.274467 -0.734942 -3.444563 -14.018737 -2.703961 -0.502329 3.167913 0.215043 8.008682 -3.907825 -1.559310 -2.122228 0.076015 -0.484113 -0.428434 -13.861306 11.322633 -16.868679 -10.407847 10.287564 -6.286140 -13.698250 -5.105987 -6.281771 -55.122417 -26.052899 2.727540 126.835736 -43.432703 -89.091020 35.586802 -13.689875 7.428084 -14.685407 -3.012567 -7.486968 8.577066 4.007423 -5.316080 54.501500 12.173343 6.355500 -129.490520 41.574923 -102.436487 -27.452295 8.573975 -18.026382 16.974114 5.881296 -2.132720 
-0.026566 -0.017689 0.055106 165.149192 51.838385 -13.190325 2.602622 2.120534 0.052814 -3.003162 -3.204759 -7.374540 -4.920067 0.492346 0.504138 5.715926 14.305245 -10.678874 2.096589 -1.865751 -1.905806 2.378619 -3.365398 -4.296641 11.103113 -0.639348 -3.120975 -14.388368 -3.379536 -0.881706 2.807507 0.074046 9.794231 -4.709716 -0.929033 -1.115563 -0.355813 -0.415818 -0.345281 -13.671801 8.626794 -17.118628 -9.510147 8.491044 -9.566305 -16.668505 -1.361313 -4.939609 -57.250992 -20.699260 1.735750 120.965947 -43.807110 -85.681081 32.415024 -10.022584 3.940657 -14.517646 -3.567067 -7.828503 10.145772 2.256337 -4.427798 57.393588 9.514980 6.899263 -127.542233 41.844202 -101.524385 -26.115184 7.723230 -17.615634 17.809592 6.470602 -2.670275 
